<?xml version="1.0" encoding="UTF-8"?>
<svg version="1.1" xmlns="http://www.w3.org/2000/svg" width="1000" height="1000">
<path d="M0 0 C1.70953857 0.01135986 1.70953857 0.01135986 3.45361328 0.02294922 C11.97115184 0.18948308 19.21656665 1.08398995 27.125 4.4375 C28.15238281 4.86160156 29.17976562 5.28570312 30.23828125 5.72265625 C45.57724663 12.71971924 57.89476036 24.7357434 64.125 40.4375 C69.31076273 56.11220169 68.37929952 72.55781663 61.5625 87.5625 C58.0925057 94.12758972 53.32624104 99.21835452 48.125 104.4375 C47.53074219 105.03433594 46.93648437 105.63117188 46.32421875 106.24609375 C45.92847656 106.63925781 45.53273438 107.03242188 45.125 107.4375 C45.99382812 107.68242187 46.86265625 107.92734375 47.7578125 108.1796875 C63.97017411 114.2358133 76.25098265 130.9723426 83.5 146.0625 C92.09928881 165.8098973 92.78252902 188.51665817 84.91918945 208.66601562 C76.07260885 229.54081967 57.85594989 245.74710278 37.03515625 254.375 C17.6697798 261.44531194 -5.37864353 262.91723424 -24.875 255.4375 C-25.91011719 255.07527344 -26.94523438 254.71304688 -28.01171875 254.33984375 C-46.77428007 247.25283275 -64.87096805 231.47043692 -73.875 213.4375 C-82.43479924 193.07841949 -84.30910532 170.13006852 -76.02929688 149.31103516 C-69.09979123 133.22678452 -57.42046429 117.94350876 -41.875 109.4375 C-42.57625 108.715625 -43.2775 107.99375 -44 107.25 C-44.59167969 106.64091797 -44.59167969 106.64091797 -45.1953125 106.01953125 C-47.02135726 104.25487518 -47.02135726 104.25487518 -49.765625 102.14453125 C-59.07625159 94.4306269 -65.06258524 82.26854078 -66.875 70.4375 C-68.00916441 52.46365228 -65.74127526 37.15943832 -53.5 23.1875 C-51.97435405 21.58872391 -50.43359585 20.00417148 -48.875 18.4375 C-48.28332031 17.81101562 -47.69164062 17.18453125 -47.08203125 16.5390625 C-42.93198842 12.48979333 -38.24179446 9.81920115 -33.125 7.1875 C-32.49392334 6.8579834 -31.86284668 6.5284668 -31.21264648 6.18896484 C-21.22144613 1.29045784 -11.02927963 -0.1032612 0 0 Z M-14.875 13.4375 C-15.8380433 20.21038845 -16.79967377 26.98332748 -17.71972656 33.76220703 C-17.83118011 34.58292694 -17.94263367 35.40364685 -18.0574646 36.24923706 C-18.29010977 37.96252739 -18.52254729 39.67584592 -18.75479126 41.38919067 C-19.50167133 46.8517628 -20.30395876 52.3032666 -21.14399719 57.7522583 C-21.69792797 61.38627468 -22.22056035 65.02440445 -22.73770142 68.66381836 C-22.99520043 70.42481861 -23.26628182 72.18388797 -23.55111694 73.94067383 C-25.46070179 83.09259034 -25.46070179 83.09259034 -23.5715332 91.80810547 C-21.74199079 93.43245407 -20.09738208 94.43486533 -17.875 95.4375 C-17.13636719 95.91960937 -16.39773438 96.40171875 -15.63671875 96.8984375 C-9.99361122 99.38523065 -4.71209221 99.8172092 1.375 99.875 C2.52802612 99.89022705 2.52802612 99.89022705 3.7043457 99.90576172 C8.49472672 99.83191153 12.17029408 99.39182913 16.125 96.4375 C18.93273789 89.89625527 20.76475334 83.04362651 22.69921875 76.203125 C23.02791458 75.04754089 23.35661041 73.89195679 23.69526672 72.70135498 C24.38525003 70.27128478 25.07346635 67.84071225 25.76000977 65.40966797 C26.81347881 61.68403839 27.87617028 57.96112024 28.93945312 54.23828125 C29.60993577 51.87255469 30.27987662 49.5066745 30.94921875 47.140625 C31.26791428 46.02705627 31.5866098 44.91348755 31.91496277 43.76617432 C32.20559097 42.73119812 32.49621918 41.69622192 32.7956543 40.62988281 C33.05307907 39.72135559 33.31050385 38.81282837 33.57572937 37.87677002 C34.27145182 35.20384288 34.27145182 35.20384288 34.125 31.4375 C22.98253604 20.60211182 7.54100824 14.72648774 -7.73046875 13.86328125 C-8.76512268 13.79977478 -8.76512268 13.79977478 -9.82067871 13.73498535 C-11.50523026 13.63211754 -13.1900882 13.53428798 -14.875 13.4375 Z M-15.875 115.4375 C-14.61610216 123.70315816 -12.47549705 131.49714735 -9.875 139.4375 C-11.07125 139.416875 -12.2675 139.39625 -13.5 139.375 C-17.05504869 139.36867429 -20.38055624 139.73861125 -23.875 140.4375 C-23.978125 139.344375 -24.08125 138.25125 -24.1875 137.125 C-24.8439566 131.74784816 -26.358592 126.62571352 -27.875 121.4375 C-38.38888663 124.9857033 -43.7878247 134.3388889 -48.45043945 143.72705078 C-50.27707494 147.61471517 -51.38618336 151.12519981 -51.875 155.4375 C-49.7913691 155.29598172 -47.70810062 155.14912064 -45.625 155 C-44.46484375 154.91878906 -43.3046875 154.83757812 -42.109375 154.75390625 C-38.71654434 154.5019608 -38.71654434 154.5019608 -34.875 153.4375 C-34.545 157.7275 -34.215 162.0175 -33.875 166.4375 C-35.15375 166.416875 -36.4325 166.39625 -37.75 166.375 C-42.83707017 166.36691245 -47.8266147 166.84729211 -52.875 167.4375 C-53.41749536 175.43930661 -51.48338688 181.90345398 -48.875 189.4375 C-45.03836928 188.08820536 -42.22327431 186.35998975 -39.0625 183.8125 C-38.27230469 183.18085937 -37.48210938 182.54921875 -36.66796875 181.8984375 C-36.07628906 181.41632813 -35.48460937 180.93421875 -34.875 180.4375 C-31.13479502 182.11902073 -29.31365652 184.12789473 -26.875 187.4375 C-28.48510527 191.51126031 -31.41322271 194.20257069 -34.5 197.1875 C-35.015625 197.69410156 -35.53125 198.20070313 -36.0625 198.72265625 C-37.32883339 199.96553902 -38.6013144 201.20215276 -39.875 202.4375 C-33.57196076 210.73097268 -25.72463803 215.27154492 -15.875 218.4375 C-15.215 218.4375 -14.555 218.4375 -13.875 218.4375 C-13.875 210.8475 -13.875 203.2575 -13.875 195.4375 C-9.255 195.4375 -4.635 195.4375 0.125 195.4375 C0.125 203.0275 0.125 210.6175 0.125 218.4375 C10.9845635 217.23088183 19.16390786 213.95630924 27.125 206.4375 C25.14797733 201.94237478 21.97381634 198.57419665 18.8046875 194.875 C17.125 192.4375 17.125 192.4375 17.125 188.4375 C18.95086841 185.39438598 19.68725537 184.58341488 23.125 183.4375 C23.35960937 183.99953125 23.59421875 184.5615625 23.8359375 185.140625 C25.43163 187.98385891 27.41424543 189.91848127 29.75 192.1875 C30.56726563 192.98671875 31.38453125 193.7859375 32.2265625 194.609375 C32.85304688 195.21265625 33.47953125 195.8159375 34.125 196.4375 C39.83090959 191.26804345 42.20904679 182.90604158 43.125 175.4375 C43.27017741 171.4306034 43.24704472 167.44463483 43.125 163.4375 C41.825625 163.581875 40.52625 163.72625 39.1875 163.875 C32.15625 164.65625 32.15625 164.65625 25.125 165.4375 C24.135 162.4675 23.145 159.4975 22.125 156.4375 C23.61 156.025 25.095 155.6125 26.625 155.1875 C31.46277561 153.74719359 35.68399864 151.82248221 40.125 149.4375 C38.56529814 139.48767779 32.47581095 131.94875132 25.125 125.4375 C22.03078773 129.08391016 20.31196245 133.15234283 18.4375 137.5 C18.11716797 138.21994141 17.79683594 138.93988281 17.46679688 139.68164062 C16.13264058 142.74536415 15.125 145.06028005 15.125 148.4375 C11.825 147.1175 8.525 145.7975 5.125 144.4375 C5.125 140.65373221 5.47678089 139.12594393 6.91015625 135.77734375 C7.27560547 134.90142578 7.64105469 134.02550781 8.01757812 133.12304688 C8.79953366 131.28629991 9.58339838 129.45036461 10.36914062 127.61523438 C10.91538086 126.30329102 10.91538086 126.30329102 11.47265625 124.96484375 C11.81304932 124.16812256 12.15344238 123.37140137 12.50415039 122.55053711 C13.38964998 120.28005242 13.38964998 120.28005242 12.125 117.4375 C4.52919926 113.16486208 -7.64255258 112.69335086 -15.875 115.4375 Z " fill="#FFFFFF" transform="translate(809.875,329.5625)"/>
<path d="M0 0 C-0.00666183 1.02126984 -0.01332367 2.04253967 -0.02018738 3.09475708 C-0.0813074 12.77358448 -0.1261198 22.45237214 -0.15543652 32.13134956 C-0.17101578 37.10604086 -0.19211066 42.08057493 -0.22631836 47.05517578 C-0.25919037 51.86627599 -0.27691103 56.67722607 -0.28463173 61.48843002 C-0.29012572 63.31341791 -0.30085231 65.13839866 -0.31719017 66.96332169 C-0.97496663 86.71655356 -0.97496663 86.71655356 7 104 C10.96184798 107.55792855 14.03864764 107.51365253 19.19921875 107.3359375 C29.78708437 106.0659843 37.72172506 97.08009881 44.01806641 89.11694336 C45.65755263 86.98981667 47.28889568 84.86146808 48.82887268 82.66078186 C49.59677164 81.57182028 50.40135615 80.50764305 51.24327087 79.47483826 C56.12041267 72.88798623 56.40466562 65.3028254 57.203125 57.4140625 C57.37107379 55.90550134 57.54092578 54.39715097 57.71258545 52.88900757 C58.15713623 48.94278888 58.57819512 44.99443086 58.99353027 41.04504395 C59.50371447 36.2309546 60.03890129 31.41959359 60.57346725 26.60816002 C60.98884699 22.86927039 61.39945112 19.13008908 61.79522705 15.3890686 C61.9406266 14.04014008 62.08603235 12.69121223 62.23144531 11.34228516 C62.35626282 10.16284332 62.48108032 8.98340149 62.60968018 7.76821899 C63 5 63 5 64 3 C73.24 3 82.48 3 92 3 C92.78509869 19.23824908 93.56799236 35.47659945 94.34690857 51.71514606 C94.70868618 59.25588632 95.07143722 66.79657735 95.43652344 74.3371582 C95.75492893 80.91363598 96.07146362 87.49020075 96.38580227 94.06687421 C96.55212653 97.54541074 96.71935319 101.02389834 96.88882446 104.5022831 C97.07851174 108.39632373 97.26402001 112.29055765 97.44921875 116.18481445 C97.50532318 117.32345947 97.56142761 118.46210449 97.61923218 119.63525391 C97.93821402 126.4294144 98.06734062 133.1985547 98 140 C87.33329144 139.65921059 76.81922583 138.41958189 66.25 137 C65.24184235 136.86555481 65.24184235 136.86555481 64.21331787 136.72839355 C52.78908559 135.1972714 52.78908559 135.1972714 48 134 C48.99 124.1 49.98 114.2 51 104 C49.39125 105.98 47.7825 107.96 46.125 110 C37.312611 120.50919252 26.78715782 129.07681416 13 132 C2.88441711 132.84006845 -8.10804833 133.49964641 -17 128 C-17.69996094 127.57589844 -18.39992188 127.15179687 -19.12109375 126.71484375 C-33.34852508 117.05955481 -39.75625445 99.21872776 -43 83 C-43 81.68 -43 80.36 -43 79 C-41.54293274 78.49632243 -40.08429904 77.99717444 -38.625 77.5 C-37.81289063 77.2215625 -37.00078125 76.943125 -36.1640625 76.65625 C-34 76 -34 76 -32 76 C-32 73.03 -32 70.06 -32 67 C-32.68707031 67.2165625 -33.37414062 67.433125 -34.08203125 67.65625 C-34.98308594 67.9346875 -35.88414062 68.213125 -36.8125 68.5 C-37.70582031 68.7784375 -38.59914063 69.056875 -39.51953125 69.34375 C-42 70 -42 70 -45 70 C-45.52923572 67.87707704 -46.04815377 65.75157949 -46.5625 63.625 C-46.99755859 61.84996094 -46.99755859 61.84996094 -47.44140625 60.0390625 C-48 57 -48 57 -47 55 C-44.49609375 54.1484375 -44.49609375 54.1484375 -41.4375 53.375 C-39.91962891 52.98441406 -39.91962891 52.98441406 -38.37109375 52.5859375 C-37.19740234 52.29589844 -37.19740234 52.29589844 -36 52 C-35.67 49.36 -35.34 46.72 -35 44 C-39.95 44.99 -44.9 45.98 -50 47 C-50.99 41.72 -51.98 36.44 -53 31 C-42.5 28 -42.5 28 -38 28 C-38.33 25.03 -38.66 22.06 -39 19 C-39.66386719 19.144375 -40.32773437 19.28875 -41.01171875 19.4375 C-41.89472656 19.623125 -42.77773438 19.80875 -43.6875 20 C-44.55761719 20.185625 -45.42773438 20.37125 -46.32421875 20.5625 C-48.93712964 20.98972047 -51.35813038 21.07616201 -54 21 C-55.60299483 16.79213858 -56.10043342 13.48184122 -56 9 C-44.75164713 6.63122922 -33.46896069 4.50156763 -22.13433838 2.58920288 C-20.15009309 2.25423604 -18.1665928 1.91486566 -16.18310547 1.57543945 C-14.94963379 1.37007568 -13.71616211 1.16471191 -12.4453125 0.953125 C-11.34719238 0.76911133 -10.24907227 0.58509766 -9.11767578 0.39550781 C-6.03859204 0.00489578 -3.09951434 -0.02731325 0 0 Z " fill="#FFFFFF" transform="translate(432,452)"/>
<path d="M0 0 C-0.0721875 1.23492187 -0.144375 2.46984375 -0.21875 3.7421875 C-0.85584125 15.17576098 -1.12445806 26.54985848 -1 38 C-0.46632812 37.3709375 0.06734375 36.741875 0.6171875 36.09375 C10.0064877 25.30742589 22.0801238 14.0729565 37.13134766 12.82299805 C57.48732151 12.27654356 57.48732151 12.27654356 65 17 C65.7734375 17.48597656 66.546875 17.97195313 67.34375 18.47265625 C86.60399013 32.05112554 90.27703517 58.40996125 94.453125 79.99609375 C94.76084768 81.56657974 95.06902307 83.1369771 95.37762451 84.70729065 C96.17774365 88.78495106 96.97182443 92.86376322 97.76452637 96.94287109 C98.57885952 101.12735999 99.39907342 105.31069577 100.21875 109.49414062 C101.81816267 117.66166144 103.41117941 125.83041214 105 134 C102.06654957 135.95563362 100.72692688 136.40021465 97.36425781 136.96142578 C96.42608215 137.12144073 95.48790649 137.28145569 94.52130127 137.44631958 C93.5088031 137.61098724 92.49630493 137.77565491 91.453125 137.9453125 C90.4085614 138.12005096 89.3639978 138.29478943 88.28778076 138.474823 C86.07590236 138.84302931 83.86341768 139.2076092 81.65039062 139.56884766 C78.27564989 140.12080482 74.90341604 140.6864555 71.53125 141.25390625 C69.38034481 141.61019989 67.2293071 141.96569457 65.078125 142.3203125 C63.57152313 142.57338669 63.57152313 142.57338669 62.03448486 142.83157349 C56.95041056 143.65350152 52.15007192 144.19256791 47 144 C47.01879211 143.15271584 47.01879211 143.15271584 47.03796387 142.28831482 C47.82131155 107.31881726 47.82131155 107.31881726 48.23217773 72.34353638 C48.24393796 70.71464396 48.26091698 69.08577978 48.28344727 67.45700073 C48.41664533 57.37917738 48.15636136 47.98614476 43 39 C37.65163508 36.11372721 31.90673748 36.28334603 26 37 C14.85365194 40.79788405 3.33513825 52.59527688 -2 63 C-4.56674558 71.39616321 -4.61040079 80.36631506 -5.0703125 89.0703125 C-5.15651245 90.60305231 -5.24334576 92.13575662 -5.33078003 93.66842651 C-5.55734322 97.66942879 -5.77539494 101.67084952 -5.99157715 105.67242432 C-6.21442931 109.76888744 -6.44546648 113.86488838 -6.67578125 117.9609375 C-7.12512463 125.97353231 -7.56546232 133.98658867 -8 142 C-10.97788016 142.50893577 -13.9569254 143.00730636 -16.9375 143.5 C-17.76830078 143.64308594 -18.59910156 143.78617188 -19.45507812 143.93359375 C-25.04603373 144.84729077 -30.33493578 145.13719631 -36 145 C-39.72196751 118.49019955 -42.75934326 91.90030416 -45.83740234 65.30975342 C-46.39421254 60.50578281 -46.95380455 55.70213788 -47.51343155 50.89849472 C-48.05309466 46.26455521 -48.59154641 41.63047565 -49.12957001 36.99634552 C-49.38608129 34.78742656 -49.64285948 32.57853858 -49.89990997 30.36968231 C-50.2550795 27.31527377 -50.60873164 24.26069355 -50.96191406 21.20605469 C-51.06783875 20.29725052 -51.17376343 19.38844635 -51.28289795 18.45210266 C-52 12.22908773 -52 12.22908773 -52 10 C-45.56068926 8.56701981 -39.11925649 7.14389779 -32.67626953 5.72753906 C-30.48566664 5.24477049 -28.29555543 4.75976514 -26.10595703 4.27246094 C-22.95472442 3.57155128 -19.8017988 2.87876111 -16.6484375 2.1875 C-15.1855983 1.85939331 -15.1855983 1.85939331 -13.69320679 1.5246582 C-9.04761645 0.51425006 -4.7878881 -0.2804034 0 0 Z M63.5 69.6875 C61.76274475 72.36576851 61.07452651 73.79535992 61 77 C62.52762388 82.05901207 62.52762388 82.05901207 66.3125 85.5 C70.65274771 86.30748795 73.62826266 85.86636043 77.375 83.5 C79.81177961 79.75110829 79.75702095 76.34290968 79 72 C77.75 69.25 77.75 69.25 75 68 C70.62845694 67.23798791 67.23460488 67.16664171 63.5 69.6875 Z M64 104 C61.03733156 108.44400266 61.23054106 112.78901077 62 118 C64.2015974 120.89683868 65.78594462 122.39297231 69 124 C74.03011439 124.37963127 76.93970254 124.04522309 81 121 C81.5775 120.608125 82.155 120.21625 82.75 119.8125 C84.8314789 116.7943556 85.22345233 113.57523727 85 110 C82.84238752 105.60178994 80.52288692 102.93838011 76 101 C71.16848308 100.38321061 68.12232028 101.47039437 64 104 Z " fill="#FFFFFF" transform="translate(250,443)"/>
<path d="M0 0 C6.67119429 18.45068913 13.12851056 36.97239632 19.54510498 55.51287842 C25.61179384 73.03927808 31.75175976 90.53749816 38 108 C41.81410245 100.67524766 45.07737037 93.20916471 48.1875 85.5625 C49.23747632 83.00043552 50.29068352 80.43970188 51.34375 77.87890625 C51.62623093 77.19108063 51.90871185 76.503255 52.19975281 75.79458618 C55.76885141 67.11257164 59.39280289 58.45346663 63.01773071 49.79464722 C64.15167923 47.08557792 65.28425433 44.37593747 66.41674805 41.66625977 C71.5425224 29.41452519 76.74923686 17.19866483 82 5 C85.68674691 5.51651186 88.77463636 6.13772206 92.0859375 7.84765625 C93.13974609 8.38422852 93.13974609 8.38422852 94.21484375 8.93164062 C94.92769531 9.30482422 95.64054688 9.67800781 96.375 10.0625 C97.11105469 10.43955078 97.84710937 10.81660156 98.60546875 11.20507812 C100.40739646 12.12944364 102.20423099 13.06372614 104 14 C102.26288544 20.09024091 99.34874156 25.56144616 96.5 31.1875 C95.95883545 32.26265869 95.4176709 33.33781738 94.86010742 34.44555664 C91.35578918 41.38465277 87.78241357 48.28368987 84.13818359 55.15014648 C79.89952697 63.14868833 75.76397826 71.19959638 71.625 79.25 C66.77557042 88.68018577 61.91738121 98.10499638 57 107.5 C49.25738796 122.29396852 41.63614127 137.15088922 34 152 C32.68 152 31.36 152 30 152 C29.34 150.02 28.68 148.04 28 146 C27.03578125 146.67289063 26.0715625 147.34578125 25.078125 148.0390625 C23.8026518 148.90188261 22.52657851 149.76381609 21.25 150.625 C20.29867187 151.29402344 20.29867187 151.29402344 19.328125 151.9765625 C17.453125 153.2265625 17.453125 153.2265625 14 155 C10.48952803 154.19354022 9.90875506 152.87327092 7.75 149.875 C7.1725 148.92625 6.595 147.9775 6 147 C8.16250774 140.92307952 14.87331144 138.2723544 20 135 C16.535 128.07 16.535 128.07 13 121 C11.2675 121.928125 9.535 122.85625 7.75 123.8125 C6.77546875 124.33457031 5.8009375 124.85664062 4.796875 125.39453125 C2.02207169 126.90755519 2.02207169 126.90755519 -0.234375 128.69921875 C-2 130 -2 130 -4 130 C-4.84384675 128.58957044 -5.67469496 127.17135868 -6.5 125.75 C-7.19609375 124.56664062 -7.19609375 124.56664062 -7.90625 123.359375 C-9 121 -9 121 -9 117 C-6.87767021 115.82823482 -4.75242209 114.66245215 -2.625 113.5 C-2.02171875 113.16613281 -1.4184375 112.83226562 -0.796875 112.48828125 C3.7734375 110 3.7734375 110 6 110 C4.8774654 107.72791794 3.75208479 105.45732355 2.625 103.1875 C2.30789063 102.54490234 1.99078125 101.90230469 1.6640625 101.24023438 C0.23541389 98.36805539 -1.21785473 95.6732179 -3 93 C-7.65208836 94.72052101 -11.60484829 97.13317329 -15.79296875 99.7578125 C-18 101 -18 101 -20 101 C-21.98 97.37 -23.96 93.74 -26 90 C-18.08 85.05 -18.08 85.05 -10 80 C-12.97 74.72 -15.94 69.44 -19 64 C-23.43431573 66.33550441 -23.43431573 66.33550441 -27.85449219 68.69750977 C-30.36906778 69.98853321 -32.42480978 71 -35.28125 71 C-37.71210417 69.58568485 -38.48799359 67.92645709 -39.75 65.4375 C-40.17796875 64.61121094 -40.6059375 63.78492188 -41.046875 62.93359375 C-41.36140625 62.29550781 -41.6759375 61.65742188 -42 61 C-39.71125827 59.66141476 -37.41930344 58.32898986 -35.125 57 C-34.47402344 56.6184375 -33.82304688 56.236875 -33.15234375 55.84375 C-28.2265625 53 -28.2265625 53 -26 53 C-27.10164118 50.76955389 -28.20621894 48.54064354 -29.3125 46.3125 C-29.7755957 45.37374023 -29.7755957 45.37374023 -30.24804688 44.41601562 C-31.65010166 41.59714758 -33.0883494 38.85541013 -34.73046875 36.16796875 C-36 34 -36 34 -36 32 C-37.12019531 32.5775 -38.24039063 33.155 -39.39453125 33.75 C-40.8670265 34.50031605 -42.33969164 35.25029875 -43.8125 36 C-44.91948242 36.57234375 -44.91948242 36.57234375 -46.04882812 37.15625 C-47.11713867 37.69765625 -47.11713867 37.69765625 -48.20703125 38.25 C-48.8616333 38.58515625 -49.51623535 38.9203125 -50.19067383 39.265625 C-52 40 -52 40 -55 40 C-55.69965443 38.73581754 -56.38434763 37.46334598 -57.0625 36.1875 C-57.44535156 35.47980469 -57.82820312 34.77210938 -58.22265625 34.04296875 C-59 32 -59 32 -58 29 C-56.12426758 27.74829102 -56.12426758 27.74829102 -53.64453125 26.50390625 C-52.72244873 26.033479 -51.80036621 25.56305176 -50.8503418 25.07836914 C-49.34661011 24.32801392 -49.34661011 24.32801392 -47.8125 23.5625 C-45.7099573 22.49150545 -43.60841991 21.41853538 -41.5078125 20.34375 C-40.42918945 19.79332031 -39.35056641 19.24289062 -38.23925781 18.67578125 C-32.27896251 15.59231223 -26.40991551 12.34270726 -20.53637695 9.09790039 C-16.23459793 6.73066866 -11.91561852 4.40151872 -7.55078125 2.15234375 C-6.74938721 1.73847412 -5.94799316 1.32460449 -5.12231445 0.89819336 C-3 0 -3 0 0 0 Z " fill="#FFFFFF" transform="translate(609,443)"/>
<path d="M0 0 C9.57 0 19.14 0 29 0 C31.46710004 27.08362192 33.60138313 54.18512931 35.64428711 81.30371094 C36.1008451 87.36220561 36.56288859 93.42026906 37.02622509 99.4782486 C37.38655413 104.1999173 37.74344498 108.92184127 38.09935951 113.6438446 C38.26840469 115.87970514 38.43863651 118.11547631 38.6101284 120.35115051 C38.84808686 123.4584509 39.08124331 126.56607713 39.31323242 129.67382812 C39.3833252 130.57563812 39.45341797 131.47744812 39.52563477 132.40658569 C39.9575837 138.28118791 40.07794098 144.11033758 40 150 C33.06501215 150.14631531 26.41929023 149.5924055 19.54296875 148.72265625 C17.94489128 148.52644936 17.94489128 148.52644936 16.31452942 148.32627869 C14.07793858 148.05057703 11.84166855 147.77226153 9.60571289 147.49145508 C6.18123463 147.06171375 2.75578187 146.6405522 -0.66992188 146.22070312 C-2.8490203 145.9510211 -5.02805898 145.68085576 -7.20703125 145.41015625 C-8.2299678 145.28407486 -9.25290436 145.15799347 -10.30683899 145.02809143 C-11.25850449 144.90804245 -12.21016998 144.78799347 -13.19067383 144.66430664 C-14.442351 144.50775352 -14.442351 144.50775352 -15.71931458 144.34803772 C-17.86247408 144.02098676 -19.9024696 143.54006035 -22 143 C-21.41670925 134.45090217 -20.33780512 126.06684454 -18.95874023 117.61230469 C-18.75376923 116.33283463 -18.54879822 115.05336456 -18.33761597 113.73512268 C-17.7818039 110.26627785 -17.22048934 106.79834454 -16.65809512 103.33056164 C-16.06893406 99.6916228 -15.48495877 96.0518518 -14.90040588 92.41217041 C-13.79554105 85.5377438 -12.68609199 78.66406547 -11.57494646 71.79065156 C-10.30895969 63.95796841 -9.04815802 56.12445339 -7.78776634 48.29086828 C-5.19756533 32.192986 -2.60025229 16.09626227 0 0 Z M3.875 66.9375 C1.35600832 71.05185308 0.94286704 74.29405325 2 79 C4.37161121 82.348157 6.01533721 83.65750859 9.875 85 C13.93344247 85 16.47019361 83.96854587 20 82 C22.69246541 78.72221602 22.35892176 75.09170806 22 71 C20.25271222 67.27196535 20.25271222 67.27196535 17 65 C12.00495675 64.38114508 8.2199275 64.24364495 3.875 66.9375 Z M-3.375 108.875 C-4.75017467 113.55059389 -4.55896687 116.92347121 -2.3125 121.25 C1.23587135 125.46968485 3.41055335 126.82339482 8.9375 127.4375 C13.22902681 127.25126393 15.7525341 125.86985359 19 123 C21.40943467 119.58015724 22.24719111 117.04864944 21.9375 112.9375 C21.25840686 109.07700315 19.84355487 106.76231044 17 104 C8.94651792 99.22193831 1.92636275 101.64586897 -3.375 108.875 Z " fill="#FFFFFF" transform="translate(124,449)"/>
<path d="M0 0 C3.3 0 6.6 0 10 0 C10 5.28 10 10.56 10 16 C11.258125 16.309375 12.51625 16.61875 13.8125 16.9375 C16.26177394 17.53978048 18.60265923 18.20088641 21 19 C23.36056405 17.56989721 23.36056405 17.56989721 25.6875 15.5625 C26.49574219 14.90378906 27.30398437 14.24507813 28.13671875 13.56640625 C28.75160156 13.04949219 29.36648437 12.53257812 30 12 C33.32759923 13.55194754 35.48580485 15.30621949 38 18 C36.59070303 21.47132095 35.09394917 22.88093274 31.875 24.75 C31.15054688 25.17796875 30.42609375 25.6059375 29.6796875 26.046875 C29.12539062 26.36140625 28.57109375 26.6759375 28 27 C28.08693441 31.56739998 28.4292425 35.6895492 30 40 C33.40347502 42.6053833 36.88665439 43.87880379 41 45 C40.49287967 48.71888239 39.88391785 51.73454239 38 55 C32.93001981 54.34580901 28.58009223 52.1453591 24 50 C23.2575 50.639375 22.515 51.27875 21.75 51.9375 C19 54 19 54 15 55 C15.99 58.96 16.98 62.92 18 67 C15.24921116 67.91692961 13.64051087 68.10886083 10.8125 68.0625 C9.554375 68.041875 8.29625 68.02125 7 68 C5.19682779 64.03302114 4.50797009 60.3177458 4 56 C3.2575 55.855625 2.515 55.71125 1.75 55.5625 C-1 55 -1 55 -2.91796875 54.24609375 C-5.13206808 53.74641596 -5.13206808 53.74641596 -7.03515625 55.46875 C-8.03869141 56.47421875 -8.03869141 56.47421875 -9.0625 57.5 C-11.09765625 59.53125 -11.09765625 59.53125 -13 61 C-17.1424367 59.61918777 -18.32203099 57.40174442 -21 54 C-19.87160623 50.61481868 -18.3477352 49.56255271 -15.375 47.875 C-13.43315553 46.70159787 -13.43315553 46.70159787 -12 45 C-11.53656189 42.3223576 -11.61336891 40.00695276 -11.8515625 37.3046875 C-12 35 -12 35 -11 32 C-11.66 31.773125 -12.32 31.54625 -13 31.3125 C-16.92734533 29.59428642 -20.41260178 27.33225393 -24 25 C-23.17707746 21.01532244 -21.33946269 18.32052768 -19 15 C-17.87851563 15.79277344 -17.87851563 15.79277344 -16.734375 16.6015625 C-15.74953125 17.26929688 -14.7646875 17.93703125 -13.75 18.625 C-12.28820312 19.63433594 -12.28820312 19.63433594 -10.796875 20.6640625 C-8.15245873 22.31419443 -8.15245873 22.31419443 -5.828125 21.3359375 C-4.92320313 20.67464844 -4.92320313 20.67464844 -4 20 C-1 18 -1 18 2 18 C1.855625 17.3709375 1.71125 16.741875 1.5625 16.09375 C0.36985553 10.59433381 -0.2082715 5.62333057 0 0 Z " fill="#FFFFFF" transform="translate(128,368)"/>
<path d="M0 0 C2.64 0 5.28 0 8 0 C8 25.08 8 50.16 8 76 C0.41 76 -7.18 76 -15 76 C-20.57380768 70.42619232 -20.57380768 70.42619232 -20.66908264 64.92053223 C-20.65582443 64.15269409 -20.64256622 63.38485596 -20.62890625 62.59375 C-20.63131821 61.79142944 -20.63373016 60.98910889 -20.63621521 60.16247559 C-20.63523862 58.47138511 -20.62188958 56.78026193 -20.59692383 55.08935547 C-20.56260209 52.50767927 -20.57627468 49.9294266 -20.59570312 47.34765625 C-20.58880429 45.70050633 -20.57913155 44.05336521 -20.56640625 42.40625 C-20.57136612 41.63841187 -20.57632599 40.87057373 -20.58143616 40.07946777 C-20.4727163 35.10732326 -19.57071934 32.48102374 -16 29 C-11.22041378 26.61020689 -5.34373985 28 0 28 C0 18.76 0 9.52 0 0 Z M-10 34 C-13.67480397 37.67480397 -13.38446967 38.70561701 -13.3984375 43.75 C-13.40130768 44.40452148 -13.40417786 45.05904297 -13.40713501 45.73339844 C-13.40917368 47.11524319 -13.40365746 48.49711693 -13.39111328 49.87890625 C-13.37505436 51.9928445 -13.39096601 54.10487113 -13.41015625 56.21875 C-13.40817378 57.56250422 -13.40433002 58.90625724 -13.3984375 60.25 C-13.39505371 61.47203125 -13.39166992 62.6940625 -13.38818359 63.953125 C-13.2726144 67.33945677 -13.2726144 67.33945677 -10 70 C-6.7 69.34 -3.4 68.68 0 68 C0 56.78 0 45.56 0 34 C-3.3 34 -6.6 34 -10 34 Z " fill="#FFFFFF" transform="translate(504,626)"/>
<path d="M0 0 C3 1 3 1 4.8125 3.1875 C6.43249695 7.02433488 5.5063286 8.10506461 4 12 C2.88507485 14.7370824 1.75648467 17.4681829 0.62329102 20.19775391 C-6.83061929 38.26539942 -12.75207512 56.69804645 -16 76 C-19 77 -19 77 -21.48046875 76.00390625 C-22.82044922 75.29041016 -22.82044922 75.29041016 -24.1875 74.5625 C-25.53908203 73.85287109 -25.53908203 73.85287109 -26.91796875 73.12890625 C-27.60503906 72.75636719 -28.29210937 72.38382813 -29 72 C-28.4456846 64.82854453 -26.3843186 58.51236938 -24 51.75 C-23.39768555 50.03115601 -23.39768555 50.03115601 -22.78320312 48.27758789 C-8.6359025 8.6359025 -8.6359025 8.6359025 0 0 Z " fill="#FFFFFF" transform="translate(471,460)"/>
<path d="M0 0 C1.06734375 -0.00257813 2.1346875 -0.00515625 3.234375 -0.0078125 C4.91273438 0.00378906 4.91273438 0.00378906 6.625 0.015625 C7.74390625 0.00789062 8.8628125 0.00015625 10.015625 -0.0078125 C11.08296875 -0.00523437 12.1503125 -0.00265625 13.25 0 C14.23226562 0.00225586 15.21453125 0.00451172 16.2265625 0.00683594 C18.625 0.265625 18.625 0.265625 20.625 2.265625 C20.87896729 4.16308594 20.87896729 4.16308594 20.88378906 6.5 C20.89009338 7.37430664 20.89639771 8.24861328 20.90289307 9.14941406 C20.8988446 10.09526367 20.89479614 11.04111328 20.890625 12.015625 C20.89253845 12.98467773 20.8944519 13.95373047 20.89642334 14.95214844 C20.89778579 17.00325785 20.89408518 19.05437586 20.88574219 21.10546875 C20.87504359 24.25280039 20.88563554 27.3995612 20.8984375 30.546875 C20.89711592 32.5364596 20.89455355 34.52604384 20.890625 36.515625 C20.89467346 37.46147461 20.89872192 38.40732422 20.90289307 39.38183594 C20.89658875 40.25614258 20.89028442 41.13044922 20.88378906 42.03125 C20.88140228 43.18802246 20.88140228 43.18802246 20.87896729 44.36816406 C20.625 46.265625 20.625 46.265625 18.625 48.265625 C16.2265625 48.52441406 16.2265625 48.52441406 13.25 48.53125 C12.18265625 48.53382813 11.1153125 48.53640625 10.015625 48.5390625 C8.33726562 48.52746094 8.33726562 48.52746094 6.625 48.515625 C5.50609375 48.52335938 4.3871875 48.53109375 3.234375 48.5390625 C2.16703125 48.53648437 1.0996875 48.53390625 0 48.53125 C-0.98226562 48.52899414 -1.96453125 48.52673828 -2.9765625 48.52441406 C-5.375 48.265625 -5.375 48.265625 -7.375 46.265625 C-7.62896729 44.36816406 -7.62896729 44.36816406 -7.63378906 42.03125 C-7.64009338 41.15694336 -7.64639771 40.28263672 -7.65289307 39.38183594 C-7.6488446 38.43598633 -7.64479614 37.49013672 -7.640625 36.515625 C-7.64253845 35.54657227 -7.6444519 34.57751953 -7.64642334 33.57910156 C-7.64778579 31.52799215 -7.64408518 29.47687414 -7.63574219 27.42578125 C-7.62504359 24.27844961 -7.63563554 21.1316888 -7.6484375 17.984375 C-7.64711592 15.9947904 -7.64455355 14.00520616 -7.640625 12.015625 C-7.64467346 11.06977539 -7.64872192 10.12392578 -7.65289307 9.14941406 C-7.64658875 8.27510742 -7.64028442 7.40080078 -7.63378906 6.5 C-7.63219788 5.72881836 -7.63060669 4.95763672 -7.62896729 4.16308594 C-7.02034105 -0.38413166 -3.78106496 0.00868355 0 0 Z M-0.375 6.265625 C-0.375 18.145625 -0.375 30.025625 -0.375 42.265625 C4.245 42.265625 8.865 42.265625 13.625 42.265625 C13.625 30.385625 13.625 18.505625 13.625 6.265625 C9.005 6.265625 4.385 6.265625 -0.375 6.265625 Z " fill="#FFFFFF" transform="translate(726.375,653.734375)"/>
<path d="M0 0 C2.31 0 4.62 0 7 0 C7.33 13.53 7.66 27.06 8 41 C11.96 40.34 15.92 39.68 20 39 C20.33 26.13 20.66 13.26 21 0 C23.31 0 25.62 0 28 0 C28 15.84 28 31.68 28 48 C25.69 48 23.38 48 21 48 C21 47.34 21 46.68 21 46 C19.3603125 46.495 19.3603125 46.495 17.6875 47 C12.59063964 48.26737673 7.21002928 48.81571165 2 48 C-0.10483746 44.84274381 -0.2472059 44.12625389 -0.22705078 40.52856445 C-0.22689972 39.62785721 -0.22674866 38.72714996 -0.22659302 37.79914856 C-0.21627045 36.83031235 -0.20594788 35.86147614 -0.1953125 34.86328125 C-0.1924826 33.86870407 -0.18965271 32.87412689 -0.18673706 31.84941101 C-0.17553489 28.6703187 -0.15043014 25.49150728 -0.125 22.3125 C-0.11497025 20.15820719 -0.10584439 18.00390997 -0.09765625 15.84960938 C-0.07559546 10.56631028 -0.04211756 5.28317521 0 0 Z " fill="#FFFFFF" transform="translate(356,654)"/>
<path d="M0 0 C1.46566406 -0.00386719 1.46566406 -0.00386719 2.9609375 -0.0078125 C3.98445312 -0.00007812 5.00796875 0.00765625 6.0625 0.015625 C7.08601562 0.00789062 8.10953125 0.00015625 9.1640625 -0.0078125 C10.14117188 -0.00523437 11.11828125 -0.00265625 12.125 0 C13.02347656 0.00225586 13.92195312 0.00451172 14.84765625 0.00683594 C17.0625 0.265625 17.0625 0.265625 19.0625 2.265625 C19.2578125 5.3046875 19.2578125 5.3046875 19.1875 8.890625 C19.16945313 10.07914063 19.15140625 11.26765625 19.1328125 12.4921875 C19.10960937 13.40742187 19.08640625 14.32265625 19.0625 15.265625 C16.7525 15.265625 14.4425 15.265625 12.0625 15.265625 C12.0625 12.295625 12.0625 9.325625 12.0625 6.265625 C8.1025 6.265625 4.1425 6.265625 0.0625 6.265625 C-0.10090989 10.75939695 0.04993722 13.11346619 3.07421875 16.5546875 C6.41835636 19.53522056 9.72511271 22.40969714 13.50390625 24.828125 C15.96978776 26.52204002 17.46684704 27.71604907 19.0625 30.265625 C19.84193605 35.70002635 19.81348746 40.83019936 19.0625 46.265625 C16.53195663 48.79616837 15.62701118 48.52245729 12.125 48.53125 C11.14789062 48.53382813 10.17078125 48.53640625 9.1640625 48.5390625 C8.14054688 48.53132812 7.11703125 48.52359375 6.0625 48.515625 C5.03898438 48.52335938 4.01546875 48.53109375 2.9609375 48.5390625 C1.98382812 48.53648437 1.00671875 48.53390625 0 48.53125 C-0.89847656 48.52899414 -1.79695312 48.52673828 -2.72265625 48.52441406 C-4.9375 48.265625 -4.9375 48.265625 -6.9375 46.265625 C-7.1328125 43.0078125 -7.1328125 43.0078125 -7.0625 39.140625 C-7.04445313 37.85929688 -7.02640625 36.57796875 -7.0078125 35.2578125 C-6.98460937 34.27039063 -6.96140625 33.28296875 -6.9375 32.265625 C-4.6275 32.265625 -2.3175 32.265625 0.0625 32.265625 C0.0625 35.565625 0.0625 38.865625 0.0625 42.265625 C4.0225 42.265625 7.9825 42.265625 12.0625 42.265625 C12.21508638 37.45915403 12.23698466 34.6407983 9.05078125 30.91015625 C5.71051863 27.93819212 2.3689614 25.118483 -1.37890625 22.671875 C-3.7875529 20.98280615 -5.33694734 19.74909123 -6.9375 17.265625 C-7.71307335 12.16515305 -7.69376591 7.39211608 -6.9375 2.265625 C-4.40695663 -0.26491837 -3.50201118 0.00879271 0 0 Z " fill="#FFFFFF" transform="translate(853.9375,653.734375)"/>
<path d="M0 0 C1.46566406 -0.00386719 1.46566406 -0.00386719 2.9609375 -0.0078125 C3.98445313 -0.00007812 5.00796875 0.00765625 6.0625 0.015625 C7.08601562 0.00789062 8.10953125 0.00015625 9.1640625 -0.0078125 C10.14117187 -0.00523437 11.11828125 -0.00265625 12.125 0 C13.02347656 0.00225586 13.92195313 0.00451172 14.84765625 0.00683594 C17.0625 0.265625 17.0625 0.265625 19.0625 2.265625 C19.2578125 5.3046875 19.2578125 5.3046875 19.1875 8.890625 C19.16945312 10.07914063 19.15140625 11.26765625 19.1328125 12.4921875 C19.10960937 13.40742187 19.08640625 14.32265625 19.0625 15.265625 C16.7525 15.265625 14.4425 15.265625 12.0625 15.265625 C12.0625 12.295625 12.0625 9.325625 12.0625 6.265625 C8.1025 6.265625 4.1425 6.265625 0.0625 6.265625 C-0.10090989 10.75939695 0.04993722 13.11346619 3.07421875 16.5546875 C6.41835636 19.53522056 9.72511271 22.40969714 13.50390625 24.828125 C15.96978776 26.52204002 17.46684704 27.71604907 19.0625 30.265625 C19.84193605 35.70002635 19.81348746 40.83019936 19.0625 46.265625 C16.53195663 48.79616837 15.62701118 48.52245729 12.125 48.53125 C11.14789063 48.53382813 10.17078125 48.53640625 9.1640625 48.5390625 C8.14054688 48.53132812 7.11703125 48.52359375 6.0625 48.515625 C5.03898437 48.52335938 4.01546875 48.53109375 2.9609375 48.5390625 C1.98382813 48.53648437 1.00671875 48.53390625 0 48.53125 C-0.89847656 48.52899414 -1.79695313 48.52673828 -2.72265625 48.52441406 C-4.9375 48.265625 -4.9375 48.265625 -6.9375 46.265625 C-7.1328125 43.0078125 -7.1328125 43.0078125 -7.0625 39.140625 C-7.04445313 37.85929688 -7.02640625 36.57796875 -7.0078125 35.2578125 C-6.98460938 34.27039063 -6.96140625 33.28296875 -6.9375 32.265625 C-4.6275 32.265625 -2.3175 32.265625 0.0625 32.265625 C0.0625 35.565625 0.0625 38.865625 0.0625 42.265625 C4.0225 42.265625 7.9825 42.265625 12.0625 42.265625 C12.21508638 37.45915403 12.23698466 34.6407983 9.05078125 30.91015625 C5.71051863 27.93819212 2.3689614 25.118483 -1.37890625 22.671875 C-3.7875529 20.98280615 -5.33694734 19.74909123 -6.9375 17.265625 C-7.71307335 12.16515305 -7.69376591 7.39211608 -6.9375 2.265625 C-4.40695663 -0.26491837 -3.50201118 0.00879271 0 0 Z " fill="#FFFFFF" transform="translate(121.9375,653.734375)"/>
<path d="M0 0 C2.64 0 5.28 0 8 0 C8 4.95 8 9.9 8 15 C10.64 15 13.28 15 16 15 C16 16.98 16 18.96 16 21 C13.36 21 10.72 21 8 21 C8 32.88 8 44.76 8 57 C10.64 57 13.28 57 16 57 C16 58.98 16 60.96 16 63 C13.87506859 63.02693575 11.75004088 63.04636628 9.625 63.0625 C8.44164062 63.07410156 7.25828125 63.08570313 6.0390625 63.09765625 C3 63 3 63 1 62 C-0.29487016 58.11538953 -0.1232604 54.44116044 -0.09765625 50.39453125 C-0.0962413 49.55532639 -0.09482635 48.71612152 -0.09336853 47.85148621 C-0.08777215 45.17178784 -0.07522035 42.4921731 -0.0625 39.8125 C-0.05748453 37.99544392 -0.05292171 36.17838652 -0.04882812 34.36132812 C-0.03780391 29.90751987 -0.02054178 25.45377411 0 21 C-1.65 21 -3.3 21 -5 21 C-5 19.02 -5 17.04 -5 15 C-3.35 15 -1.7 15 0 15 C0 10.05 0 5.1 0 0 Z " fill="#FFFFFF" transform="translate(243,639)"/>
<path d="M0 0 C2.64 0 5.28 0 8 0 C8 15.84 8 31.68 8 48 C5.36 48 2.72 48 0 48 C0 32.16 0 16.32 0 0 Z " fill="#FFFFFF" transform="translate(612,654)"/>
<path d="M0 0 C2.6875 1.3125 2.6875 1.3125 4 4 C4.68397695 8.8466754 4.86295508 13.23299675 2.6875 17.6875 C-1.75311831 19.85617406 -6.16726776 19.71242405 -11 19 C-14.46721503 16.93618153 -14.84432711 15.55004423 -15.9375 11.6875 C-16.01452357 7.14310954 -15.14373033 4.96987099 -13 1 C-9.04762114 -0.97618943 -4.30927604 -0.42010667 0 0 Z " fill="#FFFFFF" transform="translate(665,471)"/>
<path d="M0 0 C3.0625 1.875 3.0625 1.875 5 5 C5.83051701 9.59008954 5.88567638 13.48696951 3.5 17.5625 C0.08933203 19.52363408 -3.1105769 20.2090285 -7 20 C-12.56179775 17.87640449 -12.56179775 17.87640449 -14 15 C-15.05900621 5.4689441 -15.05900621 5.4689441 -12.0625 1.3125 C-7.89586831 -0.4731993 -4.45828552 -0.8948819 0 0 Z " fill="#FFFFFF" transform="translate(652,502)"/>
<path d="M0 0 C2.99967154 2.1625539 3.73442528 3.56016844 4.3984375 7.16015625 C4.69032556 11.32303601 4.32620492 13.48438577 2.0625 17.0625 C-2.08514056 19.6865175 -5.22196525 19.88130117 -10 19 C-13.0625 17.6875 -13.0625 17.6875 -15 15 C-15.82278732 10.15877817 -15.86286026 5.7668091 -13.6875 1.3125 C-9.2331909 -0.86286026 -4.84122183 -0.82278732 0 0 Z " fill="#FFFFFF" transform="translate(678,440)"/>
<path d="M0 0 C2.64 0 5.28 0 8 0 C8 2.97 8 5.94 8 9 C5.36 9 2.72 9 0 9 C0 6.03 0 3.06 0 0 Z " fill="#FFFFFF" transform="translate(612,635)"/>
</svg>
